Coordinates
version=1
nRows=14
nColumns=24
inDegrees=yes

Units are S.I. units (second, meters, Newtons, ...)
Angles are in degrees.

endheader
time	pelvis_tilt	pelvis_list	pelvis_rotation	pelvis_tx	pelvis_ty	pelvis_tz	hip_flexion_r	hip_adduction_r	hip_rotation_r	knee_angle_r	ankle_angle_r	subtalar_angle_r	mtp_angle_r	hip_flexion_l	hip_adduction_l	hip_rotation_l	knee_angle_l	ankle_angle_l	subtalar_angle_l	mtp_angle_l	lumbar_extension	lumbar_bending	lumbar_rotation
      3.53000000	    -11.09545617	     11.84668848	     -4.12941870	     -0.77267286	     -0.04069248	      0.45345763	     15.10564069	    -12.29793518	      5.41534973	    -58.62035944	    -14.88295389	      1.89822622	     21.27278443	     30.15916111	     15.60913097	      3.82853748	    -23.74874394	     -1.80991921	     -2.08450144	      3.61480026	     10.02157497	    -12.02647773	     14.50137048
      3.53500000	    -11.10446534	     11.69772398	     -4.11708600	     -0.76564260	     -0.03932345	      0.45321241	     16.18563177	    -12.17319782	      5.56013641	    -59.38480631	    -14.50735837	      2.14134247	     21.76504230	     29.50392813	     15.56180823	      4.04422963	    -23.45340454	     -1.56868595	     -2.16995511	      3.63164875	      9.93182566	    -11.85639941	     14.27813975
      3.54000000	    -11.09403129	     11.53176150	     -4.09535925	     -0.75855907	     -0.03791833	      0.45296053	     17.21720603	    -12.02585845	      5.68477900	    -60.04663927	    -14.10522871	      2.48582654	     22.33714657	     28.80022391	     15.51930629	      4.36408447	    -23.13127129	     -1.34516921	     -2.34863022	      3.56491697	      9.83489286	    -11.66963149	     14.06255832
      3.54500000	    -11.08688910	     11.35516701	     -4.06285232	     -0.75147203	     -0.03652738	      0.45270134	     18.23339490	    -11.85455401	      5.80817714	    -60.62330435	    -13.66079996	      2.91487859	     23.00133962	     28.08989685	     15.48108584	      4.75020299	    -22.80164744	     -1.16329363	     -2.62773414	      3.39576325	      9.74492685	    -11.47084963	     13.81793878
      3.55000000	    -11.07958657	     11.15826938	     -4.01571673	     -0.74439727	     -0.03515848	      0.45242644	     19.22818310	    -11.64780246	      5.92350232	    -61.11902398	    -13.19748650	      3.36754038	     23.68276082	     27.37042475	     15.43829622	      5.20984851	    -22.46978155	     -1.00678681	     -2.99559742	      3.13312571	      9.65332010	    -11.24890850	     13.56544498
      3.55500000	    -11.07070315	     10.94421810	     -3.95343133	     -0.73733100	     -0.03381526	      0.45214163	     20.20012847	    -11.41140750	      6.02189399	    -61.53778720	    -12.72167649	      3.80630509	     24.33022331	     26.64277529	     15.39059185	      5.72981881	    -22.13864029	     -0.87157895	     -3.43293500	      2.78925026	      9.56170592	    -11.01358140	     13.30091593
      3.56000000	    -11.06282541	     10.72790699	     -3.86575531	     -0.73024725	     -0.03251336	      0.45183682	     21.14806610	    -11.16608809	      6.10205213	    -61.88177613	    -12.23615662	      4.21250017	     24.94758986	     25.90437808	     15.35405410	      6.30684409	    -21.79835093	     -0.75859790	     -3.93063372	      2.35356760	      9.47396220	    -10.77860053	     13.01039499
      3.56500000	    -11.03792546	     10.55105863	     -3.75228696	     -0.72312142	     -0.03125747	      0.45149437	     22.06026129	    -10.96938331	      6.16063700	    -62.15159725	    -11.77860608	      4.51120389	     25.63767384	     25.12822053	     15.37408253	      6.95701457	    -21.43568461	     -0.63264832	     -4.45603192	      1.73251687	      9.37743147	    -10.58907977	     12.74510557
      3.57000000	    -11.02256698	     10.30915998	     -3.61388665	     -0.71598666	     -0.03001245	      0.45116898	     22.93798224	    -10.68774645	      6.19070372	    -62.34040780	    -11.29709737	      4.76960844	     26.08153137	     24.35786718	     15.32130375	      7.58725720	    -21.07756045	     -0.51206479	     -4.96155631	      1.19903177	      9.28678882	    -10.34144336	     12.39759908
      3.57500000	    -10.99848391	     10.04756183	     -3.46688523	     -0.70896412	     -0.02881393	      0.45086244	     23.79327919	    -10.37330979	      6.20767069	    -62.47010137	    -10.79969602	      4.92993822	     26.37544741	     23.59521007	     15.24017802	      8.19136463	    -20.73523768	     -0.41954182	     -5.47377416	      0.71254155	      9.16821874	    -10.07801817	     12.04780698
      3.58000000	    -10.95425683	      9.84274923	     -3.27658759	     -0.70175563	     -0.02762814	      0.45050364	     24.58967028	    -10.15291723	      6.17187041	    -62.51815257	    -10.31883857	      5.00861745	     26.61705790	     22.75727934	     15.22838765	      8.87021645	    -20.31619788	     -0.32681358	     -5.97788090	      0.12747336	      9.06159466	     -9.88674800	     11.70218171
      3.58500000	    -10.91400338	      9.57693259	     -3.09190359	     -0.69470257	     -0.02648912	      0.45018502	     25.37379260	     -9.84819349	      6.13095205	    -62.49846798	     -9.84074440	      4.99143524	     26.73151476	     21.95533150	     15.13034686	      9.47228538	    -19.93587464	     -0.22357221	     -6.42360890	     -0.33524405	      8.93198197	     -9.63475564	     11.33308641
      3.59000000	    -10.83993500	      9.36544841	     -2.86174311	     -0.68750510	     -0.02534059	      0.44981487	     26.08522007	     -9.64348140	      6.02649611	    -62.39969971	     -9.37907742	      4.88647164	     26.74779003	     21.06769838	     15.09436728	     10.12921623	    -19.47899390	     -0.12482911	     -6.83341828	     -0.86028790	      8.78891014	     -9.45394739	     10.96198735
      3.59500000	    -10.77129715	      9.11167459	     -2.63559426	     -0.68038843	     -0.02422722	      0.44947184	     26.78136296	     -9.38814798	      5.90945000	    -62.22722456	     -8.92991924	      4.70953316	     26.64600817	     20.19908390	     14.99123562	     10.72870731	    -19.03197915	     -0.00288618	     -7.17615973	     -1.29084720	      8.63946595	     -9.23062631	     10.58548610
